<?xml version="1.0" encoding="UTF-8"?>
<!DOCTYPE svg PUBLIC "-//W3C//DTD SVG 1.1//EN" "http://www.w3.org/Graphics/SVG/1.1/DTD/svg11.dtd">
<!-- Creator: CorelDRAW -->
<svg xmlns="http://www.w3.org/2000/svg" xml:space="preserve" width="4000px" height="1203px" style="shape-rendering:geometricPrecision; text-rendering:geometricPrecision; image-rendering:optimizeQuality; fill-rule:evenodd; clip-rule:evenodd"
viewBox="0 0 4019.17 1209.39"
 xmlns:xlink="http://www.w3.org/1999/xlink">
 <defs>
  <style type="text/css">
   <![CDATA[
    .str0 {stroke:#ED3237;stroke-width:33.9405}
    .fil2 {fill:none}
    .fil1 {fill:#ED3237}
    .fil0 {fill:#FEFEFE}
    .fil4 {fill:#373435;fill-rule:nonzero}
    .fil3 {fill:#3E4095;fill-rule:nonzero}
   ]]>
  </style>
 </defs>
 <g id="Camada_x0020_1">
  <metadata id="CorelCorpID_0Corel-Layer"/>
  <rect class="fil0" x="-0.000215939" y="1.56284e-005" width="4019.17" height="1209.39" rx="61.0929" ry="61.0929"/>
  <g id="_616536384">
   <circle id="_616548240" class="fil1" cx="563.775" cy="204.567" r="136.018"/>
   <circle id="_616548744" class="fil1" cx="175.384" cy="1032.15" r="108.159"/>
   <circle id="_616548672" class="fil1" cx="616.215" cy="574.933" r="80.3007"/>
   <circle id="_616548768" class="fil1" cx="173.746" cy="624.098" r="70.4674"/>
   <line id="_616548576" class="fil2 str0" x1="173.737" y1="624.102" x2="616.219" y2= "574.936" />
   <line id="_616548888" class="fil2 str0" x1="563.781" y1="204.571" x2="616.219" y2= "574.936" />
   <line id="_616548840" class="fil2 str0" x1="175.391" y1="1032.15" x2="616.219" y2= "574.936" />
   <circle id="_616548552" class="fil1" cx="707.989" cy="968.244" r="70.4674"/>
   <line id="_616549128" class="fil2 str0" x1="707.987" y1="968.243" x2="616.219" y2= "574.936" />
  </g>
  <g id="_616537392">
   <path id="_613592688" class="fil3" d="M774.88 155.714l262.392 0c57.0924,0 99.9118,13.5604 128.34,40.7987 28.4286,27.1185 42.7017,65.8943 42.7017,115.97 0,51.6212 -15.4633,91.9448 -46.5075,120.966 -31.0442,29.0214 -78.3844,43.5343 -142.021,43.5343l-86.3537 0 0 189.596 -158.552 0 0 -510.865zm158.552 217.787l38.6582 0c30.4491,0 51.7411,-5.23362 64.1113,-15.8185 12.2503,-10.5872 18.4365,-24.1475 18.4365,-40.5611 0,-16.0561 -5.35355,-29.7364 -16.0584,-40.7965 -10.5849,-11.1823 -30.6867,-16.7711 -60.1855,-16.7711l-44.9621 0 0 113.947z"/>
   <path id="_6135926881" class="fil3" d="M1544.57 582.249l-179.844 0 -24.7404 84.3308 -161.29 0 191.976 -510.865 172.112 0 192.094 510.865 -165.213 0 -25.0956 -84.3308zm-33.0671 -110.499l-56.4996 -183.65 -56.1398 183.65 112.639 0z"/>
   <polygon id="_61359268812" class="fil3" points="1786.38,155.714 1933.87,155.714 2126.2,438.326 2126.2,155.714 2275,155.714 2275,666.58 2126.2,666.58 1934.82,386.109 1934.82,666.58 1786.38,666.58 "/>
   <polygon id="_613592688123" class="fil3" points="2343.99,155.714 2823.81,155.714 2823.81,281.914 2662.76,281.914 2662.76,666.58 2504.92,666.58 2504.92,281.914 2343.99,281.914 "/>
   <polygon id="_6135926881234" class="fil3" points="2894.94,155.714 3317.9,155.714 3317.9,264.788 3053.13,264.788 3053.13,346.026 3298.76,346.026 3298.76,450.221 3053.13,450.221 3053.13,550.847 3325.64,550.847 3325.64,666.58 2894.94,666.58 "/>
   <polygon id="_61359268812345" class="fil3" points="3411.28,155.714 3569.11,155.714 3569.11,348.761 3734.68,155.714 3944.5,155.714 3758.36,348.404 3952.83,666.58 3758.36,666.58 3650.71,456.407 3569.11,541.808 3569.11,666.58 3411.28,666.58 "/>
   <polygon id="_613601376" class="fil4" points="848.028,886.116 819.036,886.116 819.036,773.502 781.901,773.502 781.901,749.363 885.193,749.363 885.193,773.502 848.028,773.502 "/>
   <polygon id="_6136013761" class="fil4" points="997.074,886.116 918.305,886.116 918.305,749.363 997.074,749.363 997.074,773.119 947.297,773.119 947.297,803.132 993.594,803.132 993.594,826.888 947.297,826.888 947.297,862.17 997.074,862.17 "/>
   <path id="_61360137612" class="fil4" d="M1095.74 771.522c-10.8881,0 -19.3483,4.11811 -25.3513,12.2932 -5.97126,8.20455 -8.9716,19.6357 -8.9716,34.2912 0,30.4921 11.4628,45.7563 34.3229,45.7563 9.61195,0 21.2332,-2.3962 34.8999,-7.21801l0 24.3308c-11.2072,4.66116 -23.7561,7.02568 -37.6129,7.02568 -19.8937,0 -35.0899,-6.03462 -45.6273,-18.1039 -10.5374,-12.0692 -15.805,-29.4083 -15.805,-51.981 0,-14.2098 2.58627,-26.6614 7.7588,-37.3594 5.17253,-10.6958 12.6123,-18.9003 22.3193,-24.6159 9.67304,-5.6839 21.0408,-8.55753 34.0672,-8.55753 13.282,0 26.6297,3.22435 40.0407,9.64362l-9.35626 23.5638c-5.10918,-2.42788 -10.25,-4.53445 -15.4226,-6.35592 -5.17253,-1.81921 -10.2478,-2.71298 -15.2619,-2.71298z"/>
   <path id="_613601376123" class="fil4" d="M1293.13 886.116l-36.8458 0 -59.5158 -103.451 -0.830411 0c1.18113,18.2622 1.78753,31.2909 1.78753,39.0813l0 64.3693 -25.926 0 0 -136.753 36.5901 0 59.3891 102.428 0.638081 0c-0.925444,-17.7826 -1.40514,-30.3315 -1.40514,-37.7079l0 -64.72 26.1183 0 0 136.753z"/>
   <path id="_6136013761234" class="fil4" d="M1463.76 817.563c0,22.6383 -5.61828,40.0091 -16.8594,52.1733 -11.2072,12.1643 -27.2995,18.2645 -48.2453,18.2645 -20.9775,0 -37.0359,-6.10024 -48.277,-18.2645 -11.2388,-12.1643 -16.8254,-29.5984 -16.8254,-52.3634 0,-22.7673 5.61828,-40.1674 16.8571,-52.1733 11.2728,-12.0059 27.3968,-18.0088 48.4376,-18.0088 21.0092,0 37.0698,6.0663 48.2136,18.1695 11.1121,12.1009 16.6987,29.5011 16.6987,52.2027zm-99.8099 0c0,15.2619 2.90531,26.7564 8.68424,34.5152 5.81061,7.72712 14.4632,11.5918 26.021,11.5918 23.118,0 34.7075,-15.3909 34.7075,-46.107 0,-30.8112 -11.5262,-46.2337 -34.5152,-46.2337 -11.5579,0 -20.2421,3.89637 -26.1183,11.6552 -5.84229,7.7588 -8.77927,19.285 -8.77927,34.5786z"/>
   <polygon id="_61360137612345" class="fil4" points="1504.15,886.116 1504.15,749.363 1533.15,749.363 1533.15,862.17 1588.64,862.17 1588.64,886.116 "/>
   <path id="_613601376123456" class="fil4" d="M1744.78 817.563c0,22.6383 -5.61828,40.0091 -16.8594,52.1733 -11.2072,12.1643 -27.2995,18.2645 -48.2453,18.2645 -20.9775,0 -37.0359,-6.10024 -48.277,-18.2645 -11.2388,-12.1643 -16.8254,-29.5984 -16.8254,-52.3634 0,-22.7673 5.61828,-40.1674 16.8571,-52.1733 11.2728,-12.0059 27.3968,-18.0088 48.4376,-18.0088 21.0092,0 37.0698,6.0663 48.2136,18.1695 11.1121,12.1009 16.6987,29.5011 16.6987,52.2027zm-99.8099 0c0,15.2619 2.90531,26.7564 8.68424,34.5152 5.81061,7.72712 14.4632,11.5918 26.021,11.5918 23.118,0 34.7075,-15.3909 34.7075,-46.107 0,-30.8112 -11.5262,-46.2337 -34.5152,-46.2337 -11.5579,0 -20.2421,3.89637 -26.1183,11.6552 -5.84229,7.7588 -8.77927,19.285 -8.77927,34.5786z"/>
   <path id="_6136013761234567" class="fil4" d="M1837.09 809.327l54.2482 0 0 70.8813c-8.78154,2.87363 -17.0517,4.88517 -24.8422,6.03462 -7.7588,1.18339 -15.6782,1.75812 -23.7878,1.75812 -20.6584,0 -36.3978,-6.06856 -47.2859,-18.2012 -10.8881,-12.1326 -16.3163,-29.5667 -16.3163,-52.2367 0,-22.0953 6.2903,-39.3054 18.9343,-51.662 12.6123,-12.3227 30.1414,-18.5179 52.524,-18.5179 14.0152,0 27.5552,2.81027 40.5815,8.42856l-9.61195 23.1814c-9.99208,-4.9802 -20.3711,-7.47143 -31.1619,-7.47143 -12.5489,0 -22.575,4.21541 -30.1097,12.644 -7.56647,8.39688 -11.3339,19.733 -11.3339,33.9405 0,14.8478 3.03202,26.1817 9.12999,34.0061 6.06856,7.82215 14.9112,11.7502 26.503,11.7502 6.0663,0 12.1959,-0.640344 18.4546,-1.88483l0 -28.5123 -25.926 0 0 -24.1385z"/>
   <polygon id="_61360137612345678" class="fil4" points="1935.97,886.116 1935.97,749.363 1964.97,749.363 1964.97,886.116 "/>
   <path id="_613601376123456789" class="fil4" d="M2095.18 886.116l-9.89705 -32.567 -49.8744 0 -9.89705 32.567 -31.2592 0 48.277 -137.328 35.4407 0 48.4693 137.328 -31.2592 0zm-16.8254 -56.8662c-9.16393,-29.5033 -14.3365,-46.2021 -15.4859,-50.0645 -1.14945,-3.86469 -1.97986,-6.89671 -2.49123,-9.16393 -2.04322,7.9828 -7.94886,27.7135 -17.6558,59.2284l35.633 0z"/>
   <path id="_61360137612345678910" class="fil4" d="M2318.97 816.414c0,22.5116 -6.41702,39.7534 -19.2216,51.7253 -12.8363,11.9742 -31.3225,17.9771 -55.5244,17.9771l-38.7306 0 0 -136.753 42.9438 0c22.3193,0 39.6583,5.87397 52.0149,17.6875 12.3227,11.7819 18.5179,28.2272 18.5179,49.3631zm-30.1414 0.767055c0,-29.3744 -12.963,-44.0615 -38.889,-44.0615l-15.4542 0 0 89.0508 12.4516 0c27.9375,0 41.8916,-15.0085 41.8916,-44.9893z"/>
   <path id="_6136013761234567891011" class="fil4" d="M2439.25 886.116l-9.89705 -32.567 -49.8744 0 -9.89705 32.567 -31.2592 0 48.277 -137.328 35.4407 0 48.4693 137.328 -31.2592 0zm-16.8254 -56.8662c-9.16393,-29.5033 -14.3365,-46.2021 -15.4859,-50.0645 -1.14945,-3.86469 -1.97986,-6.89671 -2.49123,-9.16393 -2.04322,7.9828 -7.94886,27.7135 -17.6558,59.2284l35.633 0z"/>
   <polygon id="_613601376123456789101112" class="fil4" points="2549.57,886.116 2549.57,749.363 2578.56,749.363 2578.56,886.116 "/>
   <path id="_61360137612345678910111213" class="fil4" d="M2746.38 886.116l-36.8458 0 -59.5158 -103.451 -0.830411 0c1.18113,18.2622 1.78753,31.2909 1.78753,39.0813l0 64.3693 -25.926 0 0 -136.753 36.5901 0 59.3891 102.428 0.638081 0c-0.925444,-17.7826 -1.40514,-30.3315 -1.40514,-37.7079l0 -64.72 26.1183 0 0 136.753z"/>
   <polygon id="_6136013761234567891011121314" class="fil4" points="2821.42,886.116 2792.87,886.116 2792.87,749.363 2871.26,749.363 2871.26,773.119 2821.42,773.119 2821.42,808.367 2867.81,808.367 2867.81,832.06 2821.42,832.06 "/>
   <path id="_613601376123456789101112131415" class="fil4" d="M3034.23 817.563c0,22.6383 -5.61828,40.0091 -16.8594,52.1733 -11.2072,12.1643 -27.2995,18.2645 -48.2453,18.2645 -20.9775,0 -37.0359,-6.10024 -48.277,-18.2645 -11.2388,-12.1643 -16.8254,-29.5984 -16.8254,-52.3634 0,-22.7673 5.61828,-40.1674 16.8571,-52.1733 11.2728,-12.0059 27.3968,-18.0088 48.4376,-18.0088 21.0092,0 37.0698,6.0663 48.2136,18.1695 11.1121,12.1009 16.6987,29.5011 16.6987,52.2027zm-99.8099 0c0,15.2619 2.90531,26.7564 8.68424,34.5152 5.81061,7.72712 14.4632,11.5918 26.021,11.5918 23.118,0 34.7075,-15.3909 34.7075,-46.107 0,-30.8112 -11.5262,-46.2337 -34.5152,-46.2337 -11.5579,0 -20.2421,3.89637 -26.1183,11.6552 -5.84229,7.7588 -8.77927,19.285 -8.77927,34.5786z"/>
   <path id="_61360137612345678910111213141516" class="fil4" d="M3103.62 810.06l9.354 0c9.16393,0 15.9339,-1.53185 20.3077,-4.56613 4.3738,-3.06369 6.54599,-7.85383 6.54599,-14.4315 0,-6.48263 -2.23555,-11.0804 -6.6727,-13.8251 -4.47109,-2.74692 -11.3678,-4.11811 -20.7218,-4.11811l-8.81321 0 0 36.9408zm0 23.5638l0 52.4924 -28.992 0 0 -136.753 39.8484 0c18.5813,0 32.343,3.385 41.2513,10.1527 8.90825,6.77 13.3793,17.0178 13.3793,30.8112 0,8.04842 -2.20387,15.1986 -6.64102,21.4572 -4.43942,6.2903 -10.698,11.1755 -18.8076,14.7528 20.5951,30.7478 34.0061,50.6075 40.2308,59.5791l-32.1846 0 -32.6304 -52.4924 -15.4542 0z"/>
   <path id="_6136013761234567891011121314151617" class="fil4" d="M3271.09 886.116l-32.9517 -107.284 -0.830411 0c1.18113,21.8079 1.78753,36.3684 1.78753,43.6814l0 63.6022 -25.926 0 0 -136.753 39.4637 0 32.377 104.568 0.574726 0 34.3251 -104.568 39.4637 0 0 136.753 -27.0438 0 0 -64.72c0,-3.06596 0.0633556,-6.57767 0.158389,-10.5691 0.0972961,-3.9914 0.51137,-14.5921 1.24675,-31.8339l-0.830411 0 -35.2506 107.123 -26.5641 0z"/>
   <path id="_613601376123456789101112131415161718" class="fil4" d="M3489.58 886.116l-9.89705 -32.567 -49.8744 0 -9.89705 32.567 -31.2592 0 48.277 -137.328 35.4407 0 48.4693 137.328 -31.2592 0zm-16.8254 -56.8662c-9.16393,-29.5033 -14.3365,-46.2021 -15.4859,-50.0645 -1.14945,-3.86469 -1.97986,-6.89671 -2.49123,-9.16393 -2.04322,7.9828 -7.94886,27.7135 -17.6558,59.2284l35.633 0z"/>
   <path id="_61360137612345678910111213141516171819" class="fil4" d="M3604.37 771.522c-10.8881,0 -19.3483,4.11811 -25.3513,12.2932 -5.97126,8.20455 -8.9716,19.6357 -8.9716,34.2912 0,30.4921 11.4628,45.7563 34.3229,45.7563 9.61195,0 21.2332,-2.3962 34.8999,-7.21801l0 24.3308c-11.2072,4.66116 -23.7561,7.02568 -37.6129,7.02568 -19.8937,0 -35.0899,-6.03462 -45.6273,-18.1039 -10.5374,-12.0692 -15.805,-29.4083 -15.805,-51.981 0,-14.2098 2.58627,-26.6614 7.7588,-37.3594 5.17253,-10.6958 12.6123,-18.9003 22.3193,-24.6159 9.67304,-5.6839 21.0408,-8.55753 34.0672,-8.55753 13.282,0 26.6297,3.22435 40.0407,9.64362l-9.35626 23.5638c-5.10918,-2.42788 -10.25,-4.53445 -15.4226,-6.35592 -5.17253,-1.81921 -10.2478,-2.71298 -15.2619,-2.71298zm14.4315 137.966c0,7.9828 -2.36226,13.7617 -7.08677,17.3074 -4.6951,3.57507 -11.9742,5.33092 -21.8396,5.33092 -4.85349,0 -9.41962,-0.638081 -13.635,-1.94818l0 -15.7077c1.66082,0.414074 3.92805,0.862088 6.77,1.30784 2.84195,0.416337 5.04356,0.638081 6.60934,0.638081 4.46883,0 6.70438,-1.91424 6.70438,-5.77893 0,-5.20421 -5.17253,-8.55527 -15.5176,-10.1211l7.31304 -14.3998 18.0382 0 -2.52065 5.71558c4.62948,1.50017 8.29958,3.79907 11.0465,6.96006 2.74692,3.16099 4.11811,6.70438 4.11811,10.6958z"/>
   <path id="_6136013761234567891011121314151617181920" class="fil4" d="M3764.15 886.116l-9.89705 -32.567 -49.8744 0 -9.89705 32.567 -31.2592 0 48.277 -137.328 35.4407 0 48.4693 137.328 -31.2592 0zm-16.8254 -56.8662c-9.16393,-29.5033 -14.3365,-46.2021 -15.4859,-50.0645 -1.14945,-3.86469 -1.97986,-6.89671 -2.49123,-9.16393 -2.04322,7.9828 -7.94886,27.7135 -17.6558,59.2284l35.633 0zm-33.3024 -100.64c-1.94818,0 -3.79907,0.830411 -5.55493,2.45729 -1.7898,1.66082 -3.09764,4.18373 -3.89637,7.53479l-13.9541 0c0.7037,-9.03496 3.25829,-16.124 7.72712,-21.2332 4.47109,-5.10691 10.3767,-7.6615 17.7215,-7.6615 2.55459,0 5.0775,0.51137 7.53479,1.53185 2.45955,1.02274 4.88517,2.17219 7.31304,3.385 2.39394,1.21281 4.75619,2.2989 7.0551,3.31938 2.2989,0.991062 4.56613,1.50243 6.83335,1.50243 1.91651,0 3.76739,-0.830411 5.55493,-2.45955 1.7898,-1.5952 3.06596,-4.11811 3.89637,-7.47143l13.9201 0c-0.669759,9.03722 -3.2877,16.124 -7.79047,21.2332 -4.53445,5.10918 -10.4084,7.66376 -17.6558,7.66376 -2.55459,0 -5.04582,-0.51137 -7.53479,-1.53411 -2.45955,-1.02048 -4.88517,-2.13825 -7.28137,-3.38274 -2.39394,-1.21507 -4.75619,-2.33058 -7.0551,-3.35332 -2.33058,-1.02274 -4.59781,-1.53185 -6.83335,-1.53185z"/>
   <path id="_613601376123456789101112131415161718192021" class="fil4" d="M3945 817.563c0,22.6383 -5.61828,40.0091 -16.8594,52.1733 -11.2072,12.1643 -27.2995,18.2645 -48.2453,18.2645 -20.9775,0 -37.0359,-6.10024 -48.277,-18.2645 -11.2388,-12.1643 -16.8254,-29.5984 -16.8254,-52.3634 0,-22.7673 5.61828,-40.1674 16.8571,-52.1733 11.2728,-12.0059 27.3968,-18.0088 48.4376,-18.0088 21.0092,0 37.0698,6.0663 48.2136,18.1695 11.1121,12.1009 16.6987,29.5011 16.6987,52.2027zm-99.8099 0c0,15.2619 2.90531,26.7564 8.68424,34.5152 5.81061,7.72712 14.4632,11.5918 26.021,11.5918 23.118,0 34.7075,-15.3909 34.7075,-46.107 0,-30.8112 -11.5262,-46.2337 -34.5152,-46.2337 -11.5579,0 -20.2421,3.89637 -26.1183,11.6552 -5.84229,7.7588 -8.77927,19.285 -8.77927,34.5786z"/>
  </g>
 </g>
</svg>
